<?xml version="1.0" encoding="UTF-8"?>
<svg viewBox="0 0 99.169189 269.06531" xmlns="http://www.w3.org/2000/svg">
 <defs>
  <linearGradient id="c" x2="0" y1="415.5" y2="410.09" gradientUnits="userSpaceOnUse">
   <stop stop-color="#c2c2c2" offset="0"/>
   <stop stop-color="#5a5a5a" offset="1"/>
  </linearGradient>
  <linearGradient id="b" x1="189.81" x2="212.71" y1="391.35" y2="414.25" gradientUnits="userSpaceOnUse">
   <stop stop-color="#354d73" offset="0"/>
   <stop stop-color="#3a68ae" stop-opacity="0" offset="1"/>
  </linearGradient>
  <linearGradient id="a" x1="211.57" x2="199.77" y1="413.1" y2="401.31" gradientUnits="userSpaceOnUse">
   <stop stop-color="#fff" stop-opacity=".3041" offset="0"/>
   <stop stop-color="#3a68ae" stop-opacity="0" offset="1"/>
  </linearGradient>
 </defs>
 <g transform="matrix(4.4827 0 0 4.4827 -845.88 -1747.5)">
  <path d="m200.38 397.36a1.875 1.875 0 0 1 1.875 1.875v48.75a1.875 1.875 0 0 1 -1.875 1.875 1.875 1.875 0 0 1 -1.875 -1.875v-48.75a1.875 1.875 0 0 1 1.875 -1.875" fill="url(#c)" fill-rule="evenodd"/>
  <path d="m191.57 389.84h16.377a2.8731 2.8731 0 0 1 2.8731 2.8731v16.377a2.8731 2.8731 0 0 1 -2.8731 2.8731h-16.377a2.8731 2.8731 0 0 1 -2.8731 -2.8731v-16.377a2.8731 2.8731 0 0 1 2.8731 -2.8731" fill="#3567b4" fill-rule="evenodd"/>
  <path d="m191.57 389.84h16.377a2.8731 2.8731 0 0 1 2.8731 2.8731v16.377a2.8731 2.8731 0 0 1 -2.8731 2.8731h-16.377a2.8731 2.8731 0 0 1 -2.8731 -2.8731v-16.377a2.8731 2.8731 0 0 1 2.8731 -2.8731" fill="url(#b)" fill-rule="evenodd"/>
  <path transform="matrix(.22308 0 0 .22308 188.7 389.84)" d="m23.25 15.219v68.719h13.875v-25.938h9.0625c6.4239 3e-5 11.215-0.34021 14.375-1 2.3959-0.4861 4.788-1.552 7.2188-3.2188 5.4169-3.7849 8.1249-9.5933 8.125-17.406-6e-5 -4.8613-1.1458-9.0518-3.4375-12.594-2.4655-3.8196-5.9547-6.3471-10.469-7.5625-2.5696-0.65968-8.0343-0.99992-16.438-1h-22.312zm13.875 11.625h6.7188c4.9655 6e-5 8.2985 0.1563 10 0.46875 5.1739 0.93761 7.75 4.0102 7.75 9.2188-5e-5 2.0488-0.52082 3.8472-1.5625 5.375-1.4237 2.0835-3.7429 3.4097-6.9375 4-1.4932 0.27784-4.2776 0.43754-8.375 0.4375h-7.5938v-19.5z" fill="#fff"/>
  <path d="m191.57 389.84h16.377a2.8731 2.8731 0 0 1 2.8731 2.8731v16.377a2.8731 2.8731 0 0 1 -2.8731 2.8731h-16.377a2.8731 2.8731 0 0 1 -2.8731 -2.8731v-16.377a2.8731 2.8731 0 0 1 2.8731 -2.8731" fill="url(#a)" fill-rule="evenodd"/>
 </g>
</svg>
